# xmcd
#
# Track frame offsets:
#	150
#	26375
#	50465
#	74443
#	97053
#	113878
#	129993
#	148443
#	169763
#	186253
#	220195
#	240398
#	264483
#
# Disc length: 3778 seconds
#
# Revision: 0
# Processed by: cddbd v1.4PL0 Copyright (c) Steve Scherf et al.
# Submitted via: audiograbber 1.80.04
#
DISCID=c00ec00d
DTITLE=Radoslav Lorkovic - Clear and Cold
DYEAR=1991
DGENRE=Blues
TTITLE0=Northwind
TTITLE1=Mexican Cafe
TTITLE2=Wide Open
TTITLE3=Roll On Through
TTITLE4=Trouble Goodbye
TTITLE5=Doin' It
TTITLE6=Do Right Woman
TTITLE7=Ridin' On the Night Train
TTITLE8=Big Chief
TTITLE9=Blues in C Minor
TTITLE10=In the Dark With You
TTITLE11=Three Main Place
TTITLE12=Allegra
EXTD=
EXTT0=
EXTT1=
EXTT2=
EXTT3=
EXTT4=
EXTT5=
EXTT6=
EXTT7=
EXTT8=
EXTT9=
EXTT10=
EXTT11=
EXTT12=
PLAYORDER=
